<svg height="34.200436" viewBox="0 0 112.80042 34.200436" width="112.80042" xmlns="http://www.w3.org/2000/svg"><g fill="#d6004f"><path d="m13.8 34.200424c-8.4 0-13.8-3.7-13.8-13.7s6.6-15.4000003 15.2-15.4000003 13.7 5.1000003 13.7 13.9000003-6.8 15.2-15.1 15.2zm.7-20.4c-2 0-4 1.7-4 5.6s1.1 6 3.8 6 4-2.3 4-5.7-1-5.9-3.8-5.9z"/><path d="m46.9 33.600424v-17.6c0-1.4-.4-2.3-1.5-2.3s-4.4 3.3-4.4 6.3v13.6h-10.2v-27.8000003h9.4a17.6 17.6 0 0 1 -.3 3.7h.1a10.2 10.2 0 0 1 8.9-4.4c6.1 0 8.2 4.1 8.2 8.8000003v19.7z"/><path d="m85.2 22.900424h-15.7c.2 1.9 2 3.5 6 3.5a20.8 20.8 0 0 0 8.2-1.7l.9 7.6a31.5 31.5 0 0 1 -10.8 1.9c-9.3 0-14.6-4.3-14.6-14.2s4.9-14.9000003 13.9-14.9000003 12.5 5.7000003 12.5 13.4000003a22.5 22.5 0 0 1 -.4 4.4zm-12.4-10.4c-1.9 0-3.3 1.5-3.4 3.8h6.3c.1-2.7-1.1-3.8-2.9-3.8z"/><g fill-rule="evenodd"><path d="m101.2.00042374a11.7 11.7 0 1 0 11.6 11.60000026 11.6 11.6 0 0 0 -11.6-11.60000026zm0 21.20000026a9.6 9.6 0 1 1 9.5-9.6 9.6 9.6 0 0 1 -9.5 9.6z"/><path d="m102.5 24.9v2.4l3.2-1.2v7.2l6.4-2.3v-9.5z" transform="translate(-7.2 -15.899576)"/></g></g></svg>