<?xml version="1.0" encoding="UTF-8"?>
<svg id="svg2872" width="29.012in" height="10.417in" version="1.1" viewBox="0 0 2785.1 1e3" xmlns="http://www.w3.org/2000/svg" xmlns:cc="http://creativecommons.org/ns#" xmlns:dc="http://purl.org/dc/elements/1.1/" xmlns:rdf="http://www.w3.org/1999/02/22-rdf-syntax-ns#">
 <metadata id="metadata2878">
  <rdf:RDF>
   <cc:Work rdf:about="">
    <dc:format>image/svg+xml</dc:format>
    <dc:type rdf:resource="http://purl.org/dc/dcmitype/StillImage"/>
    <dc:title/>
   </cc:Work>
  </rdf:RDF>
 </metadata>
 <g id="g10334" transform="translate(-3.597e-5)">
  <path id="path3494" d="m2188.3 161.8a644.56 655.17 0 0 0-495.21 236.07 644.56 544.75 0 0 1 495.21-196.29 644.56 544.75 0 0 1 494.67 196.29 644.56 655.17 0 0 0-494.67-236.07z" fill="#4d6ab1" style="paint-order:normal"/>
  <path id="path3526" d="m1649.9 4e-7a1565 1591.5 0 0 0-1032.2 397.88 1565 1400.5 0 0 1 1032.2-350.13 1565 1400.5 0 0 1 1033.1 350.13 1565 1591.5 0 0 0-1033.1-397.88z" fill="#4d6ab1" style="paint-order:normal"/>
  <path id="path10139" d="m951.67 743.66c-2.1454-45.048-9.6533-70.789-27.887-99.749-34.322-54.701-93.313-86.878-159.81-86.878-107.26 0-201.64 102.97-201.64 220.95s97.604 222.02 207.01 222.02c85.805 0 157.67-62.209 174.83-152.3h-25.742c-20.379 80.443-74.007 127.64-142.65 127.64-40.758 0-71.862-18.234-87.951-49.338-11.798-22.524-13.943-47.193-13.943-151.23v-31.104zm-277.8-21.451v-22.524c0-53.628 4.2902-71.862 19.306-90.096 15.016-18.234 39.685-27.887 69.717-27.887 33.25 0 58.991 15.016 68.644 41.83 7.5082 19.306 8.5806 27.887 8.5806 98.676z" dominant-baseline="auto" style="font-feature-settings:normal;font-variant-alternates:normal;font-variant-caps:normal;font-variant-ligatures:normal;font-variant-numeric:normal;font-variant-position:normal;paint-order:normal;shape-padding:0;text-decoration-color:#000000;text-decoration-line:none;text-decoration-style:solid;text-indent:0;text-orientation:mixed;text-transform:none;white-space:normal"/>
  <path id="path10161" d="m1098.3 403.65h-17.161c-25.742 76.152-74.007 131.93-144.8 170.54v15.016h65.427v271.36c0 66.499 2.1454 78.297 21.451 100.82 20.379 25.742 52.556 38.612 91.168 38.612 64.354 0 102.97-31.104 112.62-91.168h-21.451c-7.508 39.685-25.742 57.919-57.918 57.919-17.161 0-33.25-7.508-40.758-20.379-7.5079-11.798-8.5803-21.451-8.5803-52.556v-304.61h107.26v-21.451h-107.26z" dominant-baseline="auto" style="font-feature-settings:normal;font-variant-alternates:normal;font-variant-caps:normal;font-variant-ligatures:normal;font-variant-numeric:normal;font-variant-position:normal;paint-order:normal;shape-padding:0;text-decoration-color:#000000;text-decoration-line:none;text-decoration-style:solid;text-indent:0;text-orientation:mixed;text-transform:none;white-space:normal"/>
  <path id="path10072" d="m1673.5 413.79c-34.322 0-60.064 25.742-60.064 60.064 0 34.322 25.742 61.136 60.064 61.136 33.25 0 61.136-26.814 61.136-61.136 0-33.25-27.887-60.064-61.136-60.064z" dominant-baseline="auto" style="font-feature-settings:normal;font-variant-alternates:normal;font-variant-caps:normal;font-variant-ligatures:normal;font-variant-numeric:normal;font-variant-position:normal;paint-order:normal;shape-padding:0;text-decoration-color:#000000;text-decoration-line:none;text-decoration-style:solid;text-indent:0;text-orientation:mixed;text-transform:none;white-space:normal"/>
  <path id="path10136" d="m2077.9 561.32h-16.089l-17.161 35.395c-36.467-28.959-66.499-40.758-104.04-40.758-71.862 0-126.56 56.846-126.56 131.93 0 36.467 11.798 68.644 32.177 91.168 21.451 23.596 47.193 33.25 112.62 45.048 77.225 11.798 101.89 28.959 101.89 69.717 0 46.12-41.83 81.515-96.531 81.515-40.758 0-78.297-19.306-100.82-51.483-16.088-23.596-26.814-51.483-38.612-95.459h-15.016l3.2177 160.89h11.798l25.742-34.322c40.758 33.25 71.862 45.048 112.62 45.048 78.298 0 137.29-62.209 137.29-143.72 0-34.322-10.726-66.499-27.887-87.951-23.596-27.887-50.41-39.685-116.91-51.483-81.515-15.016-105.11-27.887-105.11-61.136 0-40.758 40.758-74.007 92.241-74.007 62.209 0 111.55 42.903 122.27 106.18h16.088z" dominant-baseline="auto" style="font-feature-settings:normal;font-variant-alternates:normal;font-variant-caps:normal;font-variant-ligatures:normal;font-variant-numeric:normal;font-variant-position:normal;paint-order:normal;shape-padding:0;text-decoration-color:#000000;text-decoration-line:none;text-decoration-style:solid;text-indent:0;text-orientation:mixed;text-transform:none;white-space:normal"/>
  <path id="path9944" d="m3.597e-5 352.78v21.452h89.021v596.35h-89.021v21.452h203.79v-21.452h-90.097v-576.67l358.8 598.12h24.696v-617.81h89.021v-21.452h-203.79v21.452h90.097v394.79l-249.33-416.24z" dominant-baseline="auto" style="font-feature-settings:normal;font-variant-alternates:normal;font-variant-caps:normal;font-variant-ligatures:normal;font-variant-numeric:normal;font-variant-position:normal;paint-order:normal;shape-padding:0;text-decoration-color:#000000;text-decoration-line:none;text-decoration-style:solid;text-indent:0;text-orientation:mixed;text-transform:none;white-space:normal"/>
  <path id="path10117" d="m1100.8 352.78v21.452h64.352l218.11 625.76h29.122l203.82-625.76h70.79v-21.452h-201.64v21.452h105.11l-149.73 454.78-154.39-454.78h98.677v-21.452z" dominant-baseline="auto" style="font-feature-settings:normal;font-variant-alternates:normal;font-variant-caps:normal;font-variant-ligatures:normal;font-variant-numeric:normal;font-variant-position:normal;paint-order:normal;shape-padding:0;text-decoration-color:#000000;text-decoration-line:none;text-decoration-style:solid;text-indent:0;text-orientation:mixed;text-transform:none;white-space:normal"/>
  <path id="path10078" d="m1628.4 967.82h-44.881v21.451h212.2v-21.451h-70.79v-400.07h-141.41v21.451h44.881z" dominant-baseline="auto" style="font-feature-settings:normal;font-variant-alternates:normal;font-variant-caps:normal;font-variant-ligatures:normal;font-variant-numeric:normal;font-variant-position:normal;paint-order:normal;shape-padding:0;text-decoration-color:#000000;text-decoration-line:none;text-decoration-style:solid;text-indent:0;text-orientation:mixed;text-transform:none;white-space:normal"/>
  <g id="text9761-7-5-5-7-4" dominant-baseline="auto" stroke-linecap="square" style="font-feature-settings:normal;font-variant-alternates:normal;font-variant-caps:normal;font-variant-ligatures:normal;font-variant-numeric:normal;font-variant-position:normal;paint-order:normal;shape-padding:0;text-decoration-color:#000000;text-decoration-line:none;text-decoration-style:solid;text-indent:0;text-orientation:mixed;text-transform:none;white-space:normal" aria-label="a">
   <path id="path10319" d="m2772.3 951.73c-19.306 16.089-21.451 17.161-32.177 17.161-10.726 0-15.016-3.2177-18.234-12.871-4.2903-9.6531-4.2903-9.6531-4.2903-111.55v-117.98c0-93.313-1.0725-99.749-24.669-124.42-25.742-27.887-74.007-45.048-126.56-45.048-89.023 0-168.39 50.411-168.39 107.26 0 26.814 19.306 47.193 46.12 47.193 24.669 0 43.975-19.306 43.975-46.12 0-11.798-3.2177-20.379-15.016-33.25-4.2903-4.2903-5.3629-7.508-5.3629-11.798 0-20.379 43.975-45.048 80.443-45.048 24.669 0 48.266 8.5805 58.991 21.451 11.798 13.943 13.943 24.669 13.943 85.805v74.007c-71.862 1.0726-115.84 8.5805-155.52 23.596-63.282 25.742-97.604 67.572-97.604 120.13 0 58.991 46.12 99.749 113.69 99.749 57.919 0 108.33-30.032 139.43-83.66 6.4354 54.701 37.54 83.66 90.096 83.66 27.887 0 49.338-9.6531 74.007-32.177zm-151.23-155.52c0 55.774-5.3629 87.951-17.161 108.33-17.161 31.104-43.975 48.266-76.152 48.266-39.685 0-64.354-26.814-64.354-71.862 0-35.395 16.089-62.209 48.266-81.515 25.742-16.089 52.556-22.524 109.4-24.669z" stroke-width="1549.3"/>
  </g>
  <path id="path10178" d="m2257.2 403.65h-17.161c-25.742 76.152-74.007 131.93-144.8 170.54v15.016h65.427v271.36c0 66.499 2.145 78.297 21.451 100.82 20.379 25.742 52.556 38.612 91.168 38.612 64.354 0 102.97-31.104 112.62-91.168h-21.451c-7.5082 39.685-25.742 57.919-57.919 57.919-17.161 0-33.25-7.508-40.758-20.379-7.508-11.798-8.5804-21.451-8.5804-52.556v-304.61h107.26v-21.451h-107.26z" dominant-baseline="auto" style="font-feature-settings:normal;font-variant-alternates:normal;font-variant-caps:normal;font-variant-ligatures:normal;font-variant-numeric:normal;font-variant-position:normal;paint-order:normal;shape-padding:0;text-decoration-color:#000000;text-decoration-line:none;text-decoration-style:solid;text-indent:0;text-orientation:mixed;text-transform:none;white-space:normal"/>
 </g>
</svg>
